<svg width="69" height="82" viewBox="0 0 69 82" fill="none" xmlns="http://www.w3.org/2000/svg">
<path d="M65.0177 27.7291L61.5002 22.7962V16.4C61.5002 16.0376 61.3562 15.69 61.0999 15.4337C60.8436 15.1774 60.496 15.0334 60.1336 15.0334H51.9335C51.5711 15.0334 51.2235 15.1774 50.9672 15.4337C50.7109 15.69 50.5669 16.0376 50.5669 16.4V22.7962L47.0508 27.7272C46.6658 28.2648 46.3112 28.8234 45.9885 29.4005L48.3749 30.733C48.6481 30.244 48.9485 29.7706 49.2745 29.3151L53.0462 24.0261C53.2112 23.7947 53.3 23.5176 53.3002 23.2334V17.7667H58.7669V23.2334C58.767 23.5179 58.8558 23.7953 59.0211 24.0269L62.7965 29.3214C63.5648 30.3933 64.186 31.5632 64.6436 32.8001H54.6669V35.5334H65.3611C65.5109 36.3681 65.5909 37.2138 65.6002 38.0618V38.2668H54.6669V41.0001H65.6002V43.7335H54.6669V46.4668H65.0695L64.7408 47.4698C64.0652 49.477 64.0645 51.6502 64.7387 53.6579L65.2333 55.1667C65.4749 55.8866 65.5988 56.6408 65.6002 57.4002H54.6669V60.1335H65.6002V62.8668H54.6669V65.6002H65.6002V68.3335H54.6669V71.0669H65.6002V76.5335C65.5995 77.2582 65.3113 77.9531 64.7989 78.4655C64.2864 78.978 63.5916 79.2662 62.8669 79.2669H59.9014C59.7203 79.2669 59.5411 79.2311 59.3739 79.1615C59.2068 79.0918 59.0551 78.9898 58.9276 78.8612C58.1507 78.1119 57.1134 77.6932 56.0341 77.6932C54.9547 77.6932 53.9174 78.1119 53.1405 78.8612L55.0731 80.7938C55.3294 80.5416 55.6745 80.4003 56.0341 80.4003C56.3936 80.4003 56.7387 80.5416 56.995 80.7938C57.3757 81.177 57.8285 81.481 58.3274 81.688C58.8263 81.8951 59.3613 82.0012 59.9014 82.0002H62.8669C64.3163 81.9986 65.7058 81.4221 66.7306 80.3973C67.7555 79.3724 68.332 77.9829 68.3336 76.5335V57.4002C68.3323 56.3494 68.1618 55.3056 67.8284 54.3091L67.3339 52.8003C66.8439 51.3494 66.8446 49.7777 67.3359 48.3273L67.8313 46.8165C67.9891 46.3214 68.1152 45.8167 68.209 45.3056C68.2899 44.7854 68.3315 44.2599 68.3336 43.7335V38.0618C68.3314 36.6409 68.1625 35.2251 67.8305 33.8435C67.2976 31.6425 66.3424 29.5659 65.0177 27.7291Z" fill="white"/>
<path d="M3.50463e-05 30.0668V71.4085C0.00315502 74.2167 1.12006 76.9089 3.10572 78.8945C5.09137 80.8802 7.7836 81.9971 10.5917 82.0002C12.8856 82.0072 15.1187 81.2625 16.9493 79.8802C17.5797 79.4078 18.3463 79.1524 19.1341 79.1524C19.9219 79.1524 20.6885 79.4078 21.3189 79.8802C23.0432 81.1791 25.1252 81.9167 27.2827 81.9929L27.3842 79.2609C25.7848 79.2055 24.2413 78.6592 22.9632 77.6961C21.858 76.8687 20.5146 76.4216 19.1341 76.4216C17.7536 76.4216 16.4102 76.8687 15.305 77.6961C13.9478 78.7207 12.2923 79.2724 10.5917 79.2669C8.50832 79.2645 6.51093 78.4357 5.03773 76.9625C3.56453 75.4893 2.73582 73.492 2.73338 71.4085V64.2335H27.3334V61.5002H2.73338V34.1668H32.8001V31.4334H2.73338V30.0668C2.72717 26.5977 3.82371 23.2165 5.86464 20.4114C7.90557 17.6062 10.7853 15.5224 14.0878 14.4607C14.3627 14.3719 14.6023 14.1982 14.7722 13.9647C14.9421 13.7311 15.0335 13.4497 15.0334 13.1609V9.56669H23.2334V13.1609C23.2333 13.4497 23.3248 13.7311 23.4947 13.9647C23.6646 14.1982 23.9042 14.3719 24.179 14.4607C27.2778 15.4537 30.0094 17.3494 32.0238 19.9049C34.0382 22.4604 35.2436 25.5592 35.4855 28.8041L38.2108 28.596C37.9422 24.9804 36.6475 21.5164 34.4786 18.611C32.3098 15.7056 29.3569 13.4794 25.9668 12.1939V9.56669H28.7001V6.83335H25.9668V1.36667C25.9668 1.00421 25.8228 0.656589 25.5665 0.400288C25.3102 0.143988 24.9626 0 24.6001 0H13.6667C13.3043 0 12.9567 0.143988 12.7004 0.400288C12.4441 0.656589 12.3001 1.00421 12.3001 1.36667V6.83335H9.56673V9.56669H12.3001V12.1939C8.67737 13.5714 5.56002 16.0194 3.36278 19.2122C1.16555 22.4049 -0.00739118 26.191 3.50463e-05 30.0668ZM15.0334 2.73334H23.2334V6.83335H15.0334V2.73334Z" fill="white"/>
<path d="M11.5432 18.6996L13.0568 20.9751C13.8966 20.4177 14.8089 19.9781 15.7681 19.6686L14.9273 17.0673C13.7299 17.454 12.5912 18.0033 11.5432 18.6996Z" fill="white"/>
<path d="M8.26677 28.8502C8.5336 26.4642 9.57718 24.2321 11.2369 22.4973L9.26563 20.6026C7.18983 22.7728 5.88417 25.5646 5.54932 28.5491L8.26677 28.8502Z" fill="white"/>
<path d="M8.20014 36.9001H5.4668V39.6334H8.20014V36.9001Z" fill="white"/>
<path d="M8.20014 42.3668H5.4668V54.6668H8.20014V42.3668Z" fill="white"/>
<path d="M38.2668 45.1001H35.5334V49.2001H38.2668V45.1001Z" fill="white"/>
<path d="M41 30.0667C37.9344 30.0667 35.5333 31.8678 35.5333 34.1668V38.7899L32.3388 40.3928C31.6551 40.7311 31.0799 41.2541 30.6783 41.9026C30.2768 42.551 30.0649 43.299 30.0667 44.0618V50.5668C30.0666 50.779 30.116 50.9883 30.2108 51.178L31.2719 53.3001L30.2108 55.4222C30.116 55.612 30.0666 55.8213 30.0667 56.0335V58.7668C30.0666 58.979 30.116 59.1883 30.2108 59.3781L31.2719 61.5002L30.2108 63.6223C30.116 63.8121 30.0666 64.0213 30.0667 64.2335V66.9668C30.0666 67.179 30.116 67.3883 30.2108 67.5781L31.2719 69.7002L30.2108 71.8223C30.116 72.0121 30.0666 72.2213 30.0667 72.4335V77.9002C30.0683 78.9871 30.5008 80.029 31.2694 80.7975C32.0379 81.566 33.0798 81.9986 34.1667 82.0002H47.8334C48.1459 81.9988 48.4574 81.9637 48.7624 81.8955C49.665 81.6866 50.4701 81.1777 51.0461 80.452C51.6221 79.7263 51.9349 78.8267 51.9334 77.9002V72.4335C51.9334 72.2213 51.8841 72.0121 51.7892 71.8223L50.7282 69.7002L51.7892 67.5781C51.8841 67.3883 51.9334 67.179 51.9334 66.9668V64.2335C51.9334 64.0213 51.8841 63.8121 51.7892 63.6223L50.7282 61.5002L51.7892 59.3781C51.8841 59.1883 51.9334 58.979 51.9334 58.7668V56.0335C51.9334 55.8213 51.8841 55.612 51.7892 55.4222L50.7282 53.3001L51.7892 51.178C51.8841 50.9883 51.9334 50.779 51.9334 50.5668V44.0618C51.9354 43.2993 51.7236 42.5516 51.3223 41.9033C50.9209 41.2551 50.3459 40.7323 49.6625 40.3942L46.4667 38.7899V34.1668C46.4667 31.8678 44.0656 30.0667 41 30.0667ZM41 32.8001C42.6684 32.8001 43.7334 33.6095 43.7334 34.1668C43.7334 34.724 42.6684 35.5334 41 35.5334C39.3317 35.5334 38.2667 34.724 38.2667 34.1668C38.2667 33.6095 39.3317 32.8001 41 32.8001ZM48.4386 42.8379C48.6673 42.9504 48.8598 43.1246 48.9944 43.341C49.129 43.5573 49.2002 43.807 49.2 44.0618V50.2444L48.3553 51.9335H36.9V54.6668H48.3553L49.2 56.3558V58.4445L48.3553 60.1335H36.9V62.8668H48.3553L49.2 64.5559V66.6445L48.3553 68.3335H36.9V71.0669H48.3553L49.2 72.7559V77.9002C49.1981 78.2049 49.0955 78.5004 48.9082 78.7406C48.7209 78.9809 48.4594 79.1526 48.1645 79.2288C48.0557 79.253 47.9448 79.2657 47.8334 79.2669H34.1667C33.9557 79.266 33.7479 79.2165 33.5592 79.1221C33.3705 79.0278 33.2062 78.8912 33.079 78.7229C32.8975 78.4872 32.7993 78.1978 32.8 77.9002V72.7559L34.0225 70.3114C34.1173 70.1216 34.1666 69.9124 34.1666 69.7002C34.1666 69.488 34.1173 69.2788 34.0225 69.0889L32.8 66.6445V64.5559L34.0225 62.1114C34.1173 61.9216 34.1666 61.7123 34.1666 61.5002C34.1666 61.288 34.1173 61.0787 34.0225 60.8889L32.8 58.4445V56.3558L34.0225 53.9114C34.1173 53.7216 34.1666 53.5123 34.1666 53.3001C34.1666 53.088 34.1173 52.8787 34.0225 52.6889L32.8 50.2444V44.0618C32.8 43.8067 32.8714 43.5567 33.0062 43.3401C33.1411 43.1236 33.3339 42.9491 33.5628 42.8366L37.5126 40.8549C37.7393 40.7414 37.93 40.567 38.0632 40.3513C38.1963 40.1355 38.2668 39.887 38.2667 39.6334V37.7139C39.1318 38.0788 40.0611 38.2668 41 38.2668C41.9389 38.2668 42.8683 38.0788 43.7334 37.7139V39.6334C43.7333 39.8869 43.8038 40.1354 43.937 40.3511C44.0702 40.5668 44.2608 40.7411 44.4874 40.8546L48.4386 42.8379Z" fill="white"/>
</svg>
