<svg width="91" height="91" viewBox="0 0 91 91" fill="none" xmlns="http://www.w3.org/2000/svg">
<g clip-path="url(#clip0)">
<path d="M3.19303 56.1348V17.4176C3.19303 15.2661 4.93705 13.522 7.08863 13.522H45.7859C47.9374 13.522 49.6814 15.2661 49.6814 17.4176V56.135C49.6814 56.8521 49.1002 57.4335 48.3829 57.4335H4.49156C3.77427 57.4335 3.19303 56.8521 3.19303 56.1348ZM34.4423 69.3985C34.4423 73.8608 30.8248 77.4782 26.3626 77.4782C21.9005 77.4782 18.283 73.8608 18.283 69.3985C18.283 64.9361 21.9005 61.3188 26.3626 61.3188C30.8248 61.3188 34.4423 64.9361 34.4423 69.3985ZM30.4023 69.3985C30.4023 67.1674 28.5936 65.3587 26.3625 65.3587C24.1314 65.3587 22.3225 67.1674 22.3225 69.3985C22.3225 71.6296 24.1314 73.4385 26.3625 73.4385C28.5936 73.4385 30.4023 71.6296 30.4023 69.3985ZM19.4037 61.3187H1.29853C0.581389 61.3187 0 61.9001 0 62.6172V66.5568C0 67.274 0.581389 67.8554 1.29853 67.8554H15.8107C16.1895 65.2556 17.5017 62.9592 19.4037 61.3187ZM76.7163 69.3985C76.7163 73.8608 73.0987 77.4782 68.6366 77.4782C64.1743 77.4782 60.5569 73.8608 60.5569 69.3985C60.5569 64.9361 64.1743 61.3188 68.6366 61.3188C73.0987 61.3187 76.7163 64.9361 76.7163 69.3985ZM72.6766 69.3985C72.6766 67.1674 70.8677 65.3587 68.6366 65.3587C66.4053 65.3587 64.5968 67.1674 64.5968 69.3985C64.5968 71.6296 66.4055 73.4385 68.6366 73.4385C70.8677 73.4385 72.6766 71.6296 72.6766 69.3985ZM91 62.6172V66.5568C91 67.274 90.4186 67.8554 89.7015 67.8554H79.1883C78.4363 62.6983 73.998 58.7216 68.6369 58.7216C63.2747 58.7216 58.8363 62.6984 58.0843 67.8554H36.9146C36.5356 65.2558 35.2235 62.9592 33.3216 61.3187H53.3943V24.1766C53.3943 22.7423 54.557 21.5795 55.9913 21.5795H68.2503C71.7021 21.5795 74.9282 23.2941 76.8596 26.1548L84.7626 37.86C85.9218 39.577 86.5413 41.6013 86.5413 43.673V61.3187H89.7015C90.4186 61.3187 91 61.9001 91 62.6172ZM77.827 38.1598L71.5074 29.1798C71.2642 28.8342 70.868 28.6286 70.4455 28.6286H60.5879C59.8709 28.6286 59.2893 29.21 59.2893 29.9271V38.9071C59.2893 39.6244 59.8707 40.2056 60.5879 40.2056H76.7653C77.8172 40.2056 78.4325 39.0201 77.827 38.1598Z" fill="#004899"/>
</g>
<defs>
<clipPath id="clip0">
<rect width="91" height="91" fill="white"/>
</clipPath>
</defs>
</svg>
