<svg width="98" height="98" viewBox="0 0 98 98" fill="none" xmlns="http://www.w3.org/2000/svg">
<path d="M56.3301 68.0212C56.0805 69.5494 55.6839 71.0255 55.1495 72.4373L59.9438 76.7815C59.2716 78.1963 58.506 79.5561 57.6225 80.8332L51.4668 78.8487C50.496 80.0354 49.4088 81.121 48.2221 82.0918L50.2066 88.2475C48.9296 89.131 47.5698 89.8951 46.1549 90.5688L41.8108 85.7745C40.399 86.3089 38.9244 86.7055 37.3947 86.9551L36.0273 93.2883C35.254 93.3496 34.4776 93.4062 33.6875 93.4062C32.8974 93.4062 32.121 93.3496 31.3462 93.2883L29.9788 86.9551C28.4506 86.7055 26.9745 86.3089 25.5627 85.7745L21.2185 90.5688C19.8037 89.8966 18.4439 89.131 17.1668 88.2475L19.1513 82.0918C17.9646 81.121 16.879 80.0338 15.9082 78.8487L9.75253 80.8332C8.869 79.5561 8.10491 78.1963 7.43116 76.7815L12.2255 72.4373C11.6911 71.0255 11.2945 69.5509 11.0449 68.0212L4.71166 66.6538C4.65041 65.879 4.59375 65.1026 4.59375 64.3125C4.59375 63.5224 4.65041 62.746 4.71166 61.9712L11.0449 60.6038C11.2945 59.0756 11.6911 57.5995 12.2255 56.1877L7.43116 51.8435C8.10338 50.4287 8.869 49.0689 9.75253 47.7918L15.9082 49.7763C16.879 48.5896 17.9662 47.504 19.1529 46.5332L17.1684 40.3775C18.4454 39.494 19.8052 38.7299 21.2201 38.0562L25.5642 42.8505C26.976 42.3161 28.4506 41.9195 29.9803 41.6699L31.3477 35.3367C32.121 35.2754 32.8974 35.2188 33.6875 35.2188C34.4776 35.2188 35.254 35.2754 36.0288 35.3367L37.3962 41.6699C38.9244 41.9195 40.4005 42.3161 41.8123 42.8505L46.1565 38.0562C47.5713 38.7284 48.9311 39.494 50.2082 40.3775L48.2237 46.5332C49.4104 47.504 50.496 48.5912 51.4668 49.7779L57.6225 47.7934C58.506 49.0704 59.2701 50.4302 59.9438 51.8451L55.1495 56.1892C55.6839 57.601 56.0805 59.0756 56.3301 60.6053L62.6633 61.9727C62.7246 62.746 62.7812 63.5224 62.7812 64.3125C62.7812 65.1026 62.7246 65.879 62.6633 66.6538L56.3301 68.0212ZM33.6875 49C25.2304 49 18.375 55.8554 18.375 64.3125C18.375 72.7696 25.2304 79.625 33.6875 79.625C42.1446 79.625 49 72.7696 49 64.3125C49 55.8554 42.1446 49 33.6875 49Z" fill="#454A6D"/>
<path d="M77.5716 24.967C77.3327 25.7587 77.0203 26.5182 76.636 27.2333L79.0538 31.8668C78.2377 32.8989 77.3067 33.8299 76.2746 34.6461L71.6411 32.2282C70.926 32.6141 70.1665 32.9265 69.3748 33.1638L67.8068 38.1557C67.1606 38.2323 66.5083 38.2812 65.8438 38.2812C65.1792 38.2812 64.5269 38.2323 63.8822 38.1572L62.3142 33.1653C61.5226 32.928 60.7631 32.6141 60.048 32.2297L55.4144 34.6476C54.3823 33.8314 53.4513 32.9004 52.6352 31.8684L55.053 27.2348C54.6672 26.5197 54.3548 25.7602 54.1174 24.9686L49.1256 23.4006C49.049 22.7544 49 22.1021 49 21.4375C49 20.7729 49.049 20.1206 49.124 19.476L54.1159 17.908C54.3532 17.1163 54.6672 16.3568 55.0515 15.6417L52.6337 11.0082C53.4498 9.97609 54.3808 9.04509 55.4129 8.22894L60.0464 10.6468C60.7615 10.2609 61.521 9.94853 62.3127 9.71119L63.8807 4.71931C64.5269 4.64275 65.1792 4.59375 65.8438 4.59375C66.5083 4.59375 67.1606 4.64275 67.8053 4.71778L69.3733 9.70966C70.1649 9.947 70.9244 10.2609 71.6395 10.6453L76.2731 8.22741C77.3052 9.04356 78.2362 9.97456 79.0523 11.0066L76.6345 15.6402C77.0203 16.3553 77.3327 17.1148 77.5701 17.9064L82.5619 19.4744C82.6385 20.1206 82.6875 20.7729 82.6875 21.4375C82.6875 22.1021 82.6385 22.7544 82.5635 23.399L77.5716 24.967ZM65.8438 15.3125C62.4612 15.3125 59.7188 18.055 59.7188 21.4375C59.7188 24.82 62.4612 27.5625 65.8438 27.5625C69.2263 27.5625 71.9688 24.82 71.9688 21.4375C71.9688 18.055 69.2263 15.3125 65.8438 15.3125Z" fill="#E89D43"/>
<path d="M89.9441 59.5212C89.7083 60.3711 89.376 61.1765 88.9503 61.9283L90.4739 65.1348C89.7818 66.0183 88.9871 66.813 88.1035 67.5052L84.8971 65.9816C84.1468 66.4072 83.3398 66.7395 82.49 66.9753L81.2987 70.3257C80.7489 70.3931 80.1931 70.4375 79.625 70.4375C79.0569 70.4375 78.5011 70.3931 77.9513 70.3257L76.76 66.9753C75.9102 66.7395 75.1047 66.4072 74.3529 65.9816L71.1465 67.5052C70.2629 66.813 69.4682 66.0183 68.7761 65.1348L70.2997 61.9283C69.874 61.178 69.5417 60.3711 69.3059 59.5228L65.9555 58.3314C65.8882 57.7802 65.8438 57.2243 65.8438 56.6562C65.8438 56.0882 65.8882 55.5323 65.9555 54.9826L69.3059 53.7913C69.5417 52.9414 69.874 52.136 70.2997 51.3857L68.7761 48.1793C69.4682 47.2957 70.2629 46.501 71.1465 45.8089L74.3529 47.3325C75.1032 46.9068 75.9102 46.5745 76.76 46.3387L77.9513 42.9883C78.5011 42.9194 79.0569 42.875 79.625 42.875C80.1931 42.875 80.7489 42.9194 81.2987 42.9868L82.49 46.3372C83.3398 46.573 84.1453 46.9052 84.8971 47.3309L88.1035 45.8073C88.9871 46.4995 89.7818 47.2942 90.4739 48.1777L88.9503 51.3842C89.376 52.1345 89.7083 52.9414 89.9441 53.7913L93.2945 54.9826C93.3618 55.5323 93.4062 56.0882 93.4062 56.6562C93.4062 57.2243 93.3618 57.7802 93.2945 58.3299L89.9441 59.5212ZM79.625 52.0625C77.0877 52.0625 75.0312 54.119 75.0312 56.6562C75.0312 59.1935 77.0877 61.25 79.625 61.25C82.1623 61.25 84.2188 59.1935 84.2188 56.6562C84.2188 54.119 82.1623 52.0625 79.625 52.0625Z" fill="#4AC3ED"/>
<path d="M93.7063 7.68684L84.5479 5.85547L82.7166 15.0123L85.7193 15.6141L86.5447 11.492C88.0285 14.579 88.8125 17.9814 88.8125 21.4375C88.8125 26.7172 87.0699 31.6815 83.7746 35.7929L86.1649 37.7085C89.8476 33.1133 91.875 27.3358 91.875 21.4375C91.875 17.4271 90.9486 13.4734 89.1861 9.90562L93.1061 10.6896L93.7063 7.68684Z" fill="#454A6D"/>
<path d="M36.3013 20.355L34.1362 22.5202L36.2171 24.6011C35.3749 24.5475 34.5312 24.5001 33.6875 24.5001C21.8418 24.5001 10.6912 29.7232 3.09619 38.831L5.44819 40.7926C12.4598 32.3845 22.7513 27.5626 33.6875 27.5626C34.4669 27.5626 35.2448 27.607 36.0227 27.656L34.1362 29.5425L36.3013 31.7077L41.9777 26.0313L36.3013 20.355Z" fill="#454A6D"/>
</svg>
