<svg width="70" height="70" viewBox="0 0 70 70" fill="none" xmlns="http://www.w3.org/2000/svg">
<path d="M38.0994 42.8215C37.212 41.8894 35.6085 41.8885 34.7197 42.8194L27.4106 50.1678C26.7458 50.8375 25.8484 51.1385 24.9704 51.0472C27.8825 48.5382 28.1557 46.3334 25.152 43.7379C22.8241 41.6344 20.6025 43.0093 18.8826 45.0393C18.7389 44.0993 19.0329 43.1127 19.734 42.4046L27.0573 35.043C27.9761 34.1195 27.9775 32.614 27.0598 31.6869C25.5098 30.3158 23.3571 26.7609 21.0176 28.9994C14.8411 35.5951 4.80105 41.7866 12.04 51.8816L6.87401 57.0476C5.92228 57.9741 7.39558 59.445 8.32067 58.4941L21.6306 45.1843C22.1766 44.6151 23.1593 44.6149 23.7052 45.1844C24.549 45.9639 25.9439 47.1863 24.7852 48.3392L5.66342 67.4614C4.50965 68.62 3.28795 67.2245 2.50861 66.3811C0.931967 64.8622 4.0703 62.985 4.84908 61.966C5.80369 61.041 4.32559 59.5677 3.40269 60.5196C1.31299 62.532 -1.59174 64.8654 1.06208 67.8279C2.00201 68.8132 3.13518 70.0332 4.62618 69.9367C6.78658 70.6295 16.5009 58.9914 18.0674 57.9505C28.0706 65.194 34.2756 54.9815 40.7579 48.8605C42.9646 46.5701 39.4421 44.3569 38.0994 42.8215ZM14.2384 38.7209L22.4682 30.442C22.6564 30.3016 22.7571 30.3017 22.9452 30.442L25.6067 33.1267C25.7365 33.2579 25.7367 33.4704 25.6072 33.6006L18.2822 40.9638C16.7771 42.4838 16.3973 44.7704 17.251 46.6711L13.4983 50.4238C10.8348 46.9465 11.0859 41.8981 14.2384 38.7209ZM39.3072 47.4185C33.7462 52.3135 28.1025 62.5841 19.5247 56.4931L23.311 52.7066C25.1754 53.4902 27.3991 53.0829 28.8616 51.61L36.1698 44.2622C36.3546 44.1196 36.4704 44.1246 36.6469 44.2622L39.3079 46.9465C39.4369 47.0766 39.4368 47.2882 39.3072 47.4185Z" fill="white"/>
<path d="M69.9429 4.61991C70.0353 3.13399 68.8254 1.98915 67.8337 1.05581C66.5261 -0.306853 64.1735 -0.306853 62.8659 1.05581L51.8878 12.034C41.7844 4.79395 35.6003 14.8399 29.0051 21.0121C26.7684 23.345 30.3219 25.5087 31.6937 27.0545C32.6197 27.9712 34.125 27.9703 35.0491 27.0513L42.409 19.7295C43.1182 19.0271 44.1051 18.7329 45.0454 18.8766C43.0147 20.5983 41.6405 22.817 43.7438 25.146C46.34 28.1509 48.547 27.8743 51.0532 24.9645C51.1443 25.8424 50.8433 26.7398 50.1734 27.4052L42.8253 34.7137C40.5883 37.0462 44.1401 39.2084 45.5118 40.7541C46.4372 41.6723 47.9422 41.6712 48.8666 40.752L57.1586 32.5091C59.8866 29.8054 60.9796 25.823 60.0111 22.1162C59.8682 21.5697 59.3095 21.2422 58.7629 21.385C58.2164 21.5279 57.889 22.0868 58.0318 22.6332C60.3619 29.2255 50.9802 35.1748 47.4243 39.3015C47.2942 39.4308 47.0825 39.4308 46.9523 39.3016L44.2687 36.6413C44.1307 36.4646 44.1255 36.3491 44.2681 36.164L51.6155 28.8562C53.0888 27.3931 53.4962 25.1694 52.7127 23.3051C53.5464 21.9062 71.1247 6.36113 69.9429 4.61991ZM40.9681 18.2775L33.6066 25.6008C33.4763 25.7303 33.2637 25.7301 33.1333 25.601L30.4483 22.939C30.3078 22.7511 30.3077 22.6503 30.4477 22.4622L38.7263 14.2327C41.904 11.0794 46.9526 10.8284 50.4298 13.4919L46.6771 17.2446C44.7764 16.3908 42.4894 16.7708 40.9681 18.2775ZM67.4674 5.65728L48.3451 24.7795C48.0682 25.0566 47.6996 25.2092 47.3078 25.2092C46.4837 25.3023 45.7271 24.1576 45.1902 23.6993C44.6214 23.153 44.6207 22.1708 45.1903 21.6247L64.3124 2.50248C64.8583 1.93328 65.8413 1.93328 66.387 2.50248C67.231 3.28181 68.6258 4.50421 67.4674 5.65728Z" fill="white"/>
<path d="M13.0738 24.895L16.0621 26.0255C16.5765 26.2242 17.1812 25.9644 17.3805 25.4308C17.5804 24.9025 17.3141 24.3121 16.7858 24.1123L13.7975 22.9819C12.5645 22.494 11.8247 24.4436 13.0738 24.895Z" fill="white"/>
<path d="M19.875 20.1116C20.788 21.0739 22.2801 19.6186 21.3386 18.6822C21.3387 18.6822 19.0147 16.3024 19.0147 16.3024C18.6201 15.8983 17.9725 15.8904 17.5682 16.2852C17.1641 16.6799 17.1564 17.3275 17.551 17.7317L19.875 20.1116Z" fill="white"/>
<path d="M25.4965 16.1564C25.8232 17.4498 27.8303 16.9092 27.4745 15.6351L26.6473 12.4965C26.5033 11.9502 25.9438 11.6241 25.3977 11.768C24.8514 11.912 24.5253 12.4715 24.6693 13.0176L25.4965 16.1564Z" fill="white"/>
</svg>
