<svg width="92" height="79" viewBox="0 0 92 79" fill="none" xmlns="http://www.w3.org/2000/svg">
<path d="M59.4182 30.7024L63.2005 31.9149C64.0068 32.1732 64.8701 31.7291 65.1287 30.9226L67.0008 25.0818C67.2592 24.2755 66.8151 23.4124 66.0088 23.1538L62.2264 21.9415C61.5094 20.6723 60.3385 19.7217 58.949 19.281L52.1218 17.0924C52.1274 17.0176 52.1333 16.9429 52.1333 16.8666V9.43745C52.1373 7.98002 51.5896 6.57511 50.6 5.50523V1.53334C50.6 0.686562 49.9134 1.52588e-05 49.0667 1.52588e-05H42.9334C42.0866 1.52588e-05 41.4 0.686562 41.4 1.53334V5.50523C40.4105 6.57511 39.8627 7.98002 39.8667 9.43745V13.3465C39.2196 12.8708 38.4806 12.5352 37.6965 12.3615L35.4317 9.09859C34.9489 8.40284 33.9935 8.23034 33.2979 8.71315C33.2979 8.71315 33.2979 8.71315 33.2977 8.71315L28.259 12.2103C27.5633 12.6931 27.3908 13.6485 27.8738 14.3443L30.1385 17.607C29.9355 19.0503 30.2865 20.5169 31.121 21.7117L35.3568 27.8149C36.3234 29.2049 38.2329 29.5499 39.6246 28.5858L44.6631 25.0891C46.0546 24.1235 46.3998 22.2127 45.4344 20.8213L45.4342 20.8211L44.8182 19.9333H47.7189L46.1472 24.8382C45.6324 26.4509 46.5198 28.1759 48.1313 28.6945L55.2059 30.9623C56.5924 31.4112 58.0974 31.3184 59.4182 30.7024ZM37.8763 26.0666L33.6404 19.9634C33.2238 19.3667 33.0633 18.6282 33.1946 17.9125L33.2653 17.5212C33.3376 17.1211 33.2479 16.7087 33.0162 16.3746L31.2676 13.8553L33.7869 12.1068L35.5351 14.626C35.767 14.9599 36.1219 15.1882 36.5219 15.2605L36.9133 15.3312C37.6298 15.4586 38.2653 15.8673 38.6786 16.4662L39.4174 17.5307L36.8982 19.2793C36.2001 19.7587 36.0228 20.7133 36.5024 21.4114C36.9817 22.1094 37.9364 22.2867 38.6345 21.8072C38.6387 21.8043 38.6427 21.8014 38.6469 21.7986L41.1662 20.05L42.9148 22.5692L37.8763 26.0666ZM49.0667 10.7333H46C45.1532 10.7333 44.4667 11.4199 44.4667 12.2666C44.4667 13.1134 45.1532 13.8 46 13.8H49.0667V16.8666H42.9334V9.43745C42.9314 8.70989 43.2205 8.01184 43.7364 7.49875L44.0176 7.21758C44.3051 6.93008 44.4667 6.54004 44.4667 6.13332V3.06667H47.5333V6.13332C47.5333 6.54004 47.6949 6.93008 47.9824 7.21758L48.2636 7.49856C48.7794 8.01165 49.0686 8.70989 49.0667 9.43745V10.7333ZM56.1416 28.0421L54.9077 27.6465L55.8438 24.7262C56.1042 23.9205 55.6621 23.0561 54.8563 22.7958C54.0506 22.5353 53.1861 22.9775 52.9259 23.7833C52.9251 23.7856 52.9243 23.7877 52.9237 23.79L51.9877 26.7104L49.0669 25.7745L50.9394 19.9333L58.014 22.2009C58.7075 22.4211 59.284 22.9096 59.6152 23.5575L59.7971 23.9111C59.9832 24.2726 60.3052 24.5455 60.6924 24.6697L63.6128 25.6058L62.6767 28.526L59.7563 27.5899C59.3691 27.4659 58.9486 27.5008 58.5871 27.6867L58.2337 27.8684C57.5874 28.2036 56.8341 28.2661 56.1416 28.0421Z" fill="white"/>
<path d="M73.6755 69.1531L69.8931 67.9408C69.1761 66.6716 68.0052 65.721 66.6157 65.2803L59.5413 63.0127C57.9284 62.4956 56.2019 63.384 55.6848 64.9967V64.9968L53.8128 70.8375C53.2979 72.4502 54.1854 74.1752 55.7969 74.6938L62.8715 76.9616C64.258 77.4105 65.7631 77.3177 67.0841 76.7017L70.8664 77.9142C71.6728 78.1725 72.536 77.7284 72.7946 76.9219L74.6668 71.0811C74.9251 70.2747 74.481 69.4117 73.6747 69.1531H73.6755ZM70.3432 74.5257L67.4228 73.5896C67.0358 73.4654 66.6153 73.4997 66.2536 73.6854L65.9002 73.8671C65.2541 74.2018 64.5008 74.2639 63.8087 74.0396L62.5748 73.644L63.5109 70.7238C63.7711 69.9181 63.329 69.0537 62.523 68.7934C61.7173 68.5331 60.8528 68.9753 60.5926 69.7812C60.5918 69.7833 60.5912 69.7854 60.5905 69.7875L59.6544 72.7079L56.7332 71.7743L58.6057 65.9331L65.6803 68.2007C66.3738 68.421 66.9503 68.9095 67.2815 69.5573L67.4634 69.911C67.6495 70.2726 67.9715 70.5454 68.3587 70.6696L71.2791 71.6057L70.3432 74.5257Z" fill="white"/>
<path d="M17.0633 74.1555C18.4548 73.1899 18.8002 71.2792 17.8346 69.8877L17.8344 69.8875L17.3753 69.2261C17.7991 69.2155 18.1995 69.0298 18.481 68.713L20.998 65.8782C21.1412 66.1312 21.316 66.3649 21.5182 66.5738L31.9576 77.2747C33.1412 78.4851 35.081 78.5092 36.2943 77.3286L45.0747 68.7628C46.287 67.5802 46.3111 65.6387 45.1285 64.4264L34.7282 53.7648L35.1843 53.351C35.552 53.0177 35.8326 52.5996 36.0016 52.1331H40.7764L40.735 52.1759C39.556 53.3908 39.5831 55.3307 40.7954 56.5123L49.5888 65.065C50.8038 66.2436 52.7434 66.2165 53.9252 65.0046L65.6841 52.9136C66.2747 52.3066 66.261 51.3358 65.654 50.7453L63.7312 48.8748C62.3647 47.5483 60.182 47.5786 58.8528 48.9425L56.9825 50.8658L54.7843 48.7276L57.9914 45.4309C58.5818 44.8239 58.5683 43.8532 57.9613 43.2628L56.0378 41.3918C55.3955 40.7633 54.5322 40.4124 53.6337 40.4143C53.6174 40.4143 53.6007 40.4143 53.5843 40.4143C52.6689 40.4246 51.7956 40.8007 51.1591 41.4587L50.6008 42.0337V32.1999C50.6008 31.3531 49.9142 30.6665 49.0675 30.6665H46.3834C44.479 30.6688 42.9357 32.2121 42.9334 34.1165V36.7999H39.8667V32.1999C39.8667 31.3531 39.1802 30.6665 38.3334 30.6665H35.6501C33.7457 30.6688 32.2024 32.2121 32.2001 34.1165V45.6627C31.7288 45.3046 31.21 45.0139 30.6585 44.7984C29.7688 44.4504 29.0936 43.7056 28.8341 42.786L28.5257 41.6845C28.4615 41.4552 28.3447 41.2442 28.1849 41.0679L25.5207 38.1308C25.0423 37.6029 24.4836 37.1537 23.8653 36.7999H29.1334C29.8965 36.7999 30.5433 36.2388 30.6512 35.4835L32.1846 24.7502C32.3044 23.9119 31.7219 23.1352 30.8835 23.0152C30.8117 23.0049 30.7392 22.9999 30.6666 22.9999H19.9333C19.0865 22.9999 18.4 23.6865 18.4002 24.5334C18.4002 24.6061 18.4053 24.6785 18.4155 24.7504L19.7447 34.0556C19.1616 33.5145 18.2618 33.5089 17.6722 34.0429L13.1297 38.1637C12.9576 38.3201 12.8234 38.5139 12.7378 38.7303L7.89361 37.2836C7.08229 37.0413 6.22803 37.5027 5.98577 38.314L4.84919 42.1195C3.59473 42.8615 2.66784 44.051 2.2548 45.4486L0.128841 52.5671C-0.353774 54.1897 0.568331 55.8969 2.18982 56.3831L6.15137 57.5659C5.98941 57.6117 5.83627 57.684 5.69789 57.7796L0.659181 61.2767C-0.0365666 61.7595 -0.209066 62.715 0.273932 63.4107L2.53866 66.6735C2.33568 68.1167 2.68662 69.5833 3.52114 70.7782L7.75695 76.8814C8.72352 78.2714 10.6331 78.6164 12.0248 77.6523L17.0633 74.1555ZM53.3568 43.5969C53.4273 43.5233 53.5245 43.4813 53.6264 43.4807H53.632C53.7318 43.48 53.8279 43.5191 53.8988 43.5892L54.7229 44.3912L51.5156 47.6878C50.9253 48.2948 50.9387 49.2656 51.5459 49.8561L55.9425 54.1324C56.5495 54.7227 57.5203 54.7091 58.1106 54.1021L61.0506 51.0795C61.1982 50.9277 61.4408 50.9245 61.5926 51.0721L62.4168 51.8736L51.7268 62.8664L42.9334 54.3139L53.3568 43.5969ZM35.2668 34.1165C35.2668 33.9047 35.4383 33.7332 35.6501 33.7332H36.8001V38.3332C36.8001 39.18 37.4866 39.8665 38.3334 39.8665H44.4667C45.3135 39.8665 46 39.18 46 38.3332V34.1165C46 33.9047 46.1716 33.7332 46.3834 33.7332H47.5334V45.1858L43.7591 49.0665H35.4345C35.4209 49.0509 35.4095 49.0345 35.3961 49.0191L35.2673 48.8771L35.2668 34.1165ZM17.071 65.6818L12.8926 62.9185L16.2085 55.9204L22.2122 59.8908L17.071 65.6818ZM42.9334 66.5673L34.1528 75.133L23.7135 64.4319C23.5656 64.2805 23.5684 64.0379 23.7198 63.8899L23.72 63.8897L24.5432 63.0866L27.7554 66.3793C28.0394 66.6704 28.4273 66.8368 28.8341 66.8417H28.8532C29.2532 66.8417 29.6375 66.6853 29.9239 66.4061L34.3142 62.1231C34.9202 61.5318 34.9323 60.5611 34.341 59.955L31.3964 56.9365C31.2487 56.7849 31.2515 56.5422 31.4032 56.3944L32.2264 55.5913L42.9334 66.5673ZM28.8988 26.0666L27.8037 33.7332H22.7966L21.7014 26.0666H28.8988ZM18.5968 37.3444L19.627 38.4802C19.9001 38.7813 20.2817 38.9616 20.6879 38.9816C21.669 39.0272 22.5913 39.463 23.2493 40.1923L25.6698 42.8613L25.8807 43.6143C26.403 45.4616 27.7602 46.9578 29.5478 47.6573C30.0268 47.8442 30.4561 48.1394 30.8019 48.5198L32.5108 50.4041C32.6459 50.6814 32.8221 50.9369 33.0331 51.1621L32.2281 51.892C31.8363 51.8966 31.4614 52.0522 31.1814 52.3263L29.2609 54.2C28.9721 54.4827 28.7352 54.8141 28.5611 55.1789L26.2585 52.6399C25.9135 52.2587 25.6614 51.8025 25.5223 51.3074C25.0004 49.4603 23.6436 47.9642 21.8561 47.2648L21.1278 46.9815L18.7068 44.3131C18.0448 43.5873 17.7008 42.6269 17.7514 41.6459C17.7711 41.2398 17.6287 40.8425 17.3556 40.5414L16.3256 39.4055L18.5968 37.3444ZM14.0083 48.9584C14.429 47.5628 14.3058 46.0598 13.6633 44.7515L14.499 41.9557L14.688 42.1638C14.7621 43.7274 15.3801 45.2161 16.4352 46.3724L19.0994 49.3095C19.2594 49.4858 19.458 49.6225 19.6799 49.7087L20.7461 50.1229C21.6355 50.4708 22.3107 51.215 22.5704 52.1341C22.8388 53.0874 23.3242 53.9656 23.9887 54.6999L26.3106 57.2596C26.8919 57.9013 27.7178 58.2664 28.5836 58.2647C28.5928 58.2647 28.6027 58.2635 28.6112 58.2635C28.7676 58.5624 28.9667 58.8366 29.2023 59.0777L31.076 60.9988L28.8799 63.1405L25.9591 60.1465C26.2255 59.4737 25.9834 58.7063 25.3793 58.308L16.4266 52.3875C15.7203 51.9204 14.7689 52.1143 14.3018 52.8206C14.2617 52.881 14.2262 52.9443 14.1952 53.0098L10.1942 61.4521C10.1616 61.4442 10.1294 61.4352 10.0966 61.428L7.83189 58.165C7.80142 58.1211 7.76864 58.0788 7.73376 58.0383L8.06649 58.1376C9.68913 58.6229 11.398 57.7008 11.8831 56.078C11.8833 56.0776 11.8833 56.0772 11.8835 56.0768L14.0083 48.9584ZM3.06689 53.4445L5.19304 46.3256C5.39927 45.6282 5.87594 45.0421 6.51687 44.6982L6.86666 44.5094C7.2247 44.3162 7.4913 43.9887 7.60764 43.5988L8.48509 40.6604L11.4235 41.5378L10.5461 44.4761C10.4297 44.8657 10.4729 45.2857 10.6661 45.6435L10.855 45.9933C11.2025 46.6325 11.28 47.3842 11.0699 48.0807L10.699 49.3225L7.76059 48.4451C6.95195 48.1934 6.09253 48.645 5.84106 49.4536C5.5894 50.2623 6.04097 51.1217 6.84961 51.3732C6.86072 51.3766 6.87203 51.3801 6.88315 51.3831L9.82158 52.2606L8.94413 55.1998L3.06689 53.4445ZM10.2764 75.133L6.04058 69.0298C5.6239 68.4331 5.46348 67.6947 5.59477 66.979L5.66549 66.5876C5.73775 66.1876 5.64805 65.7751 5.41633 65.4411L3.66776 62.9218L6.18702 61.1732L7.9352 63.6925C8.16712 64.0264 8.52208 64.2546 8.92209 64.3269L9.31347 64.3976C9.83825 64.4913 10.3237 64.7369 10.7101 65.1041C10.7234 65.1181 10.7377 65.1313 10.7517 65.1449C10.8723 65.264 10.9817 65.3937 11.0787 65.5327L11.8176 66.5972L9.29833 68.3457C8.60028 68.8253 8.42337 69.7798 8.90292 70.4778C9.38247 71.1759 10.337 71.3528 11.035 70.8732C11.039 70.8706 11.0431 70.8677 11.0471 70.865L13.5663 69.1164L15.3145 71.6357L10.2764 75.133Z" fill="white"/>
<path d="M86.0771 60.1926C85.6325 59.472 84.6878 59.2481 83.9671 59.6928C83.9054 59.7309 83.8463 59.7733 83.7906 59.8198L75.5449 66.6912C74.8944 67.2335 74.8064 68.2002 75.3486 68.8507C75.395 68.9065 75.4454 68.9588 75.4993 69.0075L83.5493 76.2717C84.1158 76.783 84.972 76.7999 85.5583 76.3113L91.448 71.4032C92.0341 70.9146 92.1719 70.0694 91.7711 69.42L86.0771 60.1926ZM84.6157 73.1036L78.8657 67.9152L84.3951 63.3076L88.4617 69.8982L84.6157 73.1036Z" fill="white"/>
<path d="M66.6987 47.123C67.2576 47.6424 68.1136 47.6719 68.7068 47.192L74.6676 42.3702C75.2608 41.8903 75.4111 41.0472 75.0199 40.3921L69.4616 31.0828C69.0275 30.3559 68.086 30.1184 67.359 30.5525C67.2967 30.5897 67.2371 30.6313 67.1808 30.6769L58.836 37.4272C58.1776 37.9596 58.0755 38.9252 58.6079 39.5836C58.6535 39.6401 58.7032 39.6932 58.7565 39.7427L66.6987 47.123ZM67.735 34.174L71.7052 40.8233L67.8125 43.9724L62.1392 38.7016L67.735 34.174Z" fill="white"/>
<path d="M86.7592 44.1679L81.773 40.5966C81.0845 40.1034 80.1268 40.2617 79.6336 40.9502L78.1911 42.964C76.6785 43.3667 75.3537 44.2848 74.4458 45.56L72.137 48.7832C71.9982 48.9766 71.9062 49.1997 71.8686 49.4349L71.6887 50.5645C71.5363 51.5074 70.9511 52.3244 70.1074 52.7722C69.2323 53.2354 68.4762 53.8951 67.8987 54.6994L65.8862 57.5092C64.9022 58.8865 65.2188 60.8005 66.5938 61.7877L71.5798 65.3591C72.0979 65.7328 72.7204 65.9339 73.3592 65.934C73.5288 65.934 73.6985 65.9201 73.8658 65.8923C74.6693 65.7619 75.387 65.3153 75.8591 64.6524L77.8716 61.8426C78.4472 61.037 78.8284 60.1089 78.9852 59.1312C79.1376 58.1884 79.7229 57.3714 80.5666 56.9236L81.5782 56.3897C81.7889 56.2785 81.9706 56.12 82.1092 55.9264L84.4178 52.7034C85.333 51.4334 85.7759 49.8836 85.6701 48.3217L87.1122 46.3065C87.605 45.6184 87.4469 44.6612 86.7592 44.1679ZM82.834 47.0157C82.5973 47.3463 82.5017 47.7574 82.568 48.1586C82.7309 49.1274 82.4996 50.1214 81.9251 50.9186L79.8272 53.8478L79.1356 54.212C77.4402 55.1118 76.2639 56.7538 75.9573 58.6486C75.8758 59.1564 75.6778 59.6382 75.379 60.0566L73.3663 62.8664L68.3801 59.2949L70.3926 56.4855C70.6926 56.0679 71.0851 55.7252 71.5395 55.4846C73.2352 54.5846 74.4117 52.9424 74.7179 51.0472L74.841 50.2749L76.9388 47.3459C77.5088 46.5457 78.3749 46.0069 79.3446 45.8492C79.7459 45.7829 80.1043 45.56 80.3412 45.2293L81.234 43.9835L83.7272 45.7693L82.834 47.0157Z" fill="white"/>
<path d="M85.8667 53.6664H88.9334V56.7331H85.8667V53.6664Z" fill="white"/>
<path d="M75.1333 35.2666H78.2V38.3332H75.1333V35.2666Z" fill="white"/>
<path d="M0.000488281 36.7998H3.06714V39.8665H0.000488281V36.7998Z" fill="white"/>
<path d="M88.9333 58.2665H92V61.3331H88.9333V58.2665Z" fill="white"/>
<path d="M47.5334 70.5331H50.6001V73.5997H47.5334V70.5331Z" fill="white"/>
<path d="M21.4668 73.5997H24.5335V76.6663H21.4668V73.5997Z" fill="white"/>
<path d="M53.6665 33.7332H56.7332V36.7999H53.6665V33.7332Z" fill="white"/>
<path d="M10.7336 30.6665H13.8003V33.7332H10.7336V30.6665Z" fill="white"/>
<path d="M0.000488281 75.133H3.06714V78.1996H0.000488281V75.133Z" fill="white"/>
</svg>
