<svg width="78" height="78" viewBox="0 0 78 78" fill="none" xmlns="http://www.w3.org/2000/svg">
<g clip-path="url(#clip0)">
<path d="M57.2813 78H20.7188C19.5443 78 18.561 77.1096 18.4448 75.9408L13.8745 29.933C13.8107 29.2908 14.0215 28.6516 14.4548 28.1732C14.8879 27.6947 15.5032 27.4219 16.1485 27.4219H61.8517C62.497 27.4219 63.1123 27.6947 63.5454 28.1731C63.9787 28.6514 64.1895 29.2907 64.1257 29.9328L59.5554 75.9406C59.4391 77.1096 58.4559 78 57.2813 78Z" fill="#97DE3D"/>
<path d="M61.8516 27.4219H39V78H57.2812C58.4558 78 59.439 77.1096 59.5553 75.9408L64.1256 29.933C64.1894 29.2908 63.9786 28.6516 63.5453 28.1732C63.1122 27.6947 62.4969 27.4219 61.8516 27.4219Z" fill="#59C36A"/>
<path d="M61.8519 22.8516H16.1487C15.4451 22.8516 14.7807 22.5274 14.3476 21.9727C13.9145 21.418 13.7611 20.6948 13.9318 20.0122L18.5021 1.73093C18.7564 0.713731 19.6705 0 20.7191 0H57.2816C58.3301 0 59.2442 0.713731 59.4985 1.73093L64.0688 20.0122C64.2396 20.6948 64.0861 21.4182 63.653 21.9727C63.2199 22.5272 62.5555 22.8516 61.8519 22.8516Z" fill="#97DE3D"/>
<path d="M59.4982 1.73093C59.2439 0.713731 58.3298 0 57.2812 0H39V22.8516H61.8516C62.5552 22.8516 63.2196 22.5274 63.6527 21.9727C64.0858 21.418 64.2392 20.6948 64.0685 20.0122L59.4982 1.73093Z" fill="#59C36A"/>
<path d="M48.1406 22.8511H29.8594C28.5974 22.8511 27.5742 21.8279 27.5742 20.5659V11.4253C27.5742 10.1633 28.5974 9.14014 29.8594 9.14014H48.1406C49.4026 9.14014 50.4258 10.1633 50.4258 11.4253V20.5659C50.4258 21.8281 49.4026 22.8511 48.1406 22.8511Z" fill="#596C76"/>
<path d="M34.5472 61.5468H27.1259C26.3095 61.5468 25.5551 61.1113 25.147 60.4043C24.7388 59.6972 24.7387 58.8261 25.147 58.1191L28.8576 51.692C29.4886 50.5991 30.8862 50.2245 31.9791 50.8557C33.0722 51.4867 33.4467 52.8843 32.8155 53.9772L31.0841 56.9765H34.5472C35.8092 56.9765 36.8323 57.9997 36.8323 59.2617C36.8323 60.5237 35.8094 61.5468 34.5472 61.5468Z" fill="#E6FFFF"/>
<path d="M50.8739 61.5469H43.4526C42.1906 61.5469 41.1675 60.5238 41.1675 59.2617C41.1675 57.9997 42.1906 56.9766 43.4526 56.9766H46.9157L45.1842 53.9774C44.553 52.8843 44.9275 51.4869 46.0205 50.8559C47.1132 50.2249 48.5111 50.5992 49.1421 51.6922L52.8527 58.1193C53.261 58.8264 53.261 59.6975 52.8527 60.4045C52.4444 61.1115 51.6905 61.5469 50.8739 61.5469Z" fill="#D9F2FF"/>
<path d="M42.7126 47.4079C41.9229 47.4079 41.1548 46.998 40.7316 46.265L38.9999 43.2656L37.2682 46.265C36.6369 47.3579 35.2394 47.7323 34.1467 47.1013C33.0536 46.4703 32.6791 45.0727 33.3103 43.9798L37.0209 37.5527C37.4292 36.8457 38.1835 36.4102 38.9999 36.4102C39.8163 36.4102 40.5707 36.8457 40.9788 37.5527L44.6895 43.9798C45.3206 45.0727 44.9462 46.4703 43.8531 47.1013C43.4933 47.3091 43.1004 47.4079 42.7126 47.4079Z" fill="#E6FFFF"/>
<path d="M48.1406 9.14014H39V22.8511H48.1406C49.4026 22.8511 50.4258 21.8279 50.4258 20.5659V11.4253C50.4258 10.1633 49.4026 9.14014 48.1406 9.14014Z" fill="#465A61"/>
<path d="M40.7317 46.265C41.1549 46.9982 41.923 47.408 42.7128 47.4079C43.1005 47.4079 43.4934 47.3091 43.8532 47.1013C44.9463 46.4703 45.3207 45.0727 44.6896 43.9798L40.9789 37.5527C40.5707 36.8457 39.8164 36.4102 39 36.4102V43.2656L40.7317 46.265Z" fill="#D9F2FF"/>
<path d="M66.4219 31.9922H11.5781C10.3161 31.9922 9.29297 30.969 9.29297 29.707V20.5664C9.29297 19.3044 10.3161 18.2812 11.5781 18.2812H66.4219C67.6839 18.2812 68.707 19.3044 68.707 20.5664V29.707C68.707 30.969 67.6839 31.9922 66.4219 31.9922Z" fill="#59C36A"/>
<path d="M66.4219 18.2812H39V31.9922H66.4219C67.6839 31.9922 68.707 30.969 68.707 29.707V20.5664C68.707 19.3044 67.6839 18.2812 66.4219 18.2812Z" fill="#00A66C"/>
</g>
<defs>
<clipPath id="clip0">
<rect width="78" height="78" fill="white"/>
</clipPath>
</defs>
</svg>
