<svg width="84" height="81" viewBox="0 0 84 81" fill="none" xmlns="http://www.w3.org/2000/svg">
<path d="M75.8269 9.88989C75.4355 9.70028 74.9779 9.70428 74.5898 9.90103L68.5863 12.946L63.8879 4.87535C62.2796 1.86088 59.1349 -0.015745 55.7184 9.95486e-05H32.5011C29.0346 0.00845712 25.8232 1.82344 24.0279 4.78899L19.7098 11.8066C19.3107 12.455 19.5061 13.3036 20.1486 13.7121L35.4708 23.4626C35.694 23.6045 35.9529 23.6797 36.2174 23.6799C36.333 23.6801 36.4481 23.6654 36.5601 23.6367C36.9318 23.5425 37.2484 23.2991 37.4348 22.9639L43.2851 12.4376L49.6926 24.556L43.859 28.0565C43.3468 28.3636 43.0873 28.9633 43.2141 29.5469C43.3403 30.1304 43.8244 30.5684 44.4176 30.6362L65.1485 32.993C65.2008 32.9986 65.2534 33.0014 65.3059 33.0014C65.8398 33.0014 66.3268 32.6963 66.5596 32.2157L76.473 11.7508C76.8084 11.0584 76.5192 10.2252 75.8269 9.88989ZM35.7174 20.3172L22.8007 12.0989L26.4084 6.23746C27.697 4.10158 30.0067 2.7931 32.5011 2.78578H38.1564L41.608 9.7156L35.7174 20.3172ZM64.4827 30.1136L48.8151 28.3321L52.257 26.2664C52.8906 25.8854 53.1162 25.0759 52.771 24.4221L41.3309 2.78578H55.7184C58.1378 2.7823 60.3582 4.12439 61.4796 6.2681L66.8396 15.4795C67.2116 16.1161 68.0152 16.3524 68.6726 16.0186L72.1633 14.2496L64.4827 30.1136Z" fill="white"/>
<path d="M82.3655 39.0075L77.8636 30.0148C77.5198 29.3265 76.6832 29.0474 75.9949 29.3911C75.9673 29.4049 75.9401 29.4197 75.9135 29.4353L59.1983 39.1858C58.5433 39.5679 58.3143 40.4036 58.6829 41.0663L64.4942 51.5383H51.54V45.9666C51.5403 45.1974 50.9168 44.5735 50.1476 44.5732C49.755 44.573 49.3804 44.7386 49.1163 45.0292L35.187 60.3514C34.7331 60.8509 34.7026 61.604 35.1146 62.1385L49.0439 80.2466C49.5135 80.8558 50.3882 80.969 50.9975 80.4994C51.3394 80.2358 51.5398 79.8287 51.54 79.3969V75.2181H61.2905C64.7251 75.3027 67.9029 73.4061 69.4586 70.3429L79.2091 53.6361L82.1064 48.9558C83.9804 45.9292 84.0795 42.1277 82.3655 39.0075ZM67.0363 68.9722C65.9631 71.1504 63.7178 72.5024 61.2905 72.4323H50.1471C49.3778 72.4323 48.7541 73.0559 48.7541 73.8252V75.3017L38.0286 61.364L48.7541 49.5687V52.9313C48.7541 53.7005 49.3778 54.3242 50.1471 54.3242H75.5805L67.0363 68.9722ZM79.7315 47.4961L77.2242 51.5355H67.6813L61.778 40.9117L76.0319 32.5945L79.8972 40.3113C81.1449 42.56 81.0816 45.3072 79.7315 47.4961Z" fill="white"/>
<path d="M33.3036 41.2042L24.9461 23.0961C24.7058 22.5727 24.1683 22.251 23.5935 22.2868L1.30668 23.6798C0.538831 23.7275 -0.0449801 24.3884 0.00272766 25.1563C0.0307603 25.6069 0.275219 26.0161 0.658971 26.2539L0.660364 26.2567L7.547 30.5274L2.95034 39.7319C1.28422 42.7589 1.2938 46.4305 2.97541 49.4489L10.7271 62.835L14.9657 70.1771C16.7861 73.2694 20.0931 75.1822 23.6813 75.2181H29.253C30.0222 75.2181 30.6459 74.5944 30.6459 73.8252V54.3242C30.6459 53.5549 30.0222 52.9313 29.253 52.9313H18.8464L25.7944 40.8755L31.5388 43.0874C32.2569 43.3634 33.0628 43.0051 33.3388 42.287C33.4738 41.9362 33.461 41.5456 33.3036 41.2042ZM27.8601 55.7171V72.4323H23.6813C21.0856 72.4072 18.6927 71.0238 17.3755 68.787L13.5519 62.1622L17.4967 55.7171H27.8601ZM25.6829 37.8472C25.0429 37.6014 24.3191 37.8577 23.9766 38.4518L11.9278 59.3568L5.38657 48.056C4.18412 45.859 4.20206 43.1968 5.43393 41.0161L10.6142 30.6333C10.9386 29.988 10.7161 29.2019 10.1016 28.8225L5.84066 26.187L22.8163 25.1298L29.3352 39.2541L25.6829 37.8472Z" fill="white"/>
</svg>
