<svg width="76" height="76" viewBox="0 0 76 76" fill="none" xmlns="http://www.w3.org/2000/svg">
<g clip-path="url(#clip0)">
<path d="M75.4665 46.4554C75.1159 47.3505 74.5633 48.1525 73.8515 48.7987L73.7565 48.8937C72.5301 50.0434 70.9092 50.6781 69.2282 50.6671H60.1718C59.6334 50.6662 59.1324 50.3919 58.8418 49.9387L57.3218 47.5004L50.9253 37.2722C50.677 36.911 50.6071 36.4562 50.7353 36.0372C50.8325 35.6066 51.1091 35.2379 51.4953 35.0238L65.745 27.1074C66.516 26.702 67.4696 26.9824 67.8984 27.7407L75.2449 40.8505C76.1623 42.5891 76.2438 44.6497 75.4665 46.4554Z" fill="#4CAF50"/>
<path d="M41.3619 12.9527L40.0319 14.821L32.9704 24.6692C32.6739 25.0915 32.188 25.3403 31.6721 25.3342C31.4074 25.3314 31.147 25.2662 30.9121 25.1442L13.4958 15.6444C13.0907 15.4298 12.8011 15.0474 12.7042 14.5994C12.6041 14.1458 12.7083 13.6711 12.9892 13.3011L19.7657 4.27621C20.036 3.9072 20.3324 3.55808 20.6523 3.23123C22.5599 1.2189 25.1948 0.0554653 27.9671 0.00128655C28.1156 -0.00390867 28.2643 0.00663021 28.4105 0.0329032C31.7978 0.135026 34.9354 1.83906 36.8654 4.62444L41.3619 11.1477C41.7383 11.6905 41.7383 12.41 41.3619 12.9527Z" fill="#4CAF50"/>
<path d="M31.1653 43.9221C30.6834 44.3649 29.9788 44.4657 29.392 44.1755L24.4521 41.7055L21.5705 47.5004L20.4305 49.7804C20.1574 50.3179 19.6085 50.6594 19.0056 50.667H6.78254C5.08459 50.6875 3.44661 50.0391 2.22262 48.862L2.15923 48.7986C1.42997 48.1293 0.856866 47.3077 0.48088 46.3921C-0.00509577 45.1531 -0.115234 43.7983 0.164268 42.4971C0.287469 41.9375 0.478802 41.3951 0.734258 40.8822L5.99078 30.4007L0.48088 24.8591C0.0113805 24.4221 -0.128594 23.735 0.132503 23.1491C0.375343 22.5579 0.949934 22.1706 1.58909 22.1675H22.1721C22.8113 22.1706 23.3859 22.5579 23.6287 23.1491L31.5452 42.1487C31.7911 42.7622 31.6409 43.4633 31.1653 43.9221Z" fill="#4CAF50"/>
<path d="M31.6724 49.0837V68.0833C31.6724 68.9578 30.9634 69.6667 30.089 69.6667H22.3941C18.76 69.6751 15.3573 67.8849 13.3059 64.8852C12.8625 64.2518 12.4826 63.6818 12.1343 63.1752L12.0077 63.0486C12.0393 63.0486 11.4061 62.162 10.8044 61.2752C10.5194 60.8952 10.2977 60.5152 10.076 60.2302C9.25261 59.0269 8.80939 58.4253 8.99938 58.6786C8.841 58.4253 8.68277 58.2353 8.61939 58.1087L8.58777 58.077C8.46116 57.887 8.41989 57.8237 8.41366 57.8079L8.36616 57.7604L8.33454 57.697C6.11797 54.4987 4.05962 51.5222 2.22303 48.8622L2.15965 48.7988C1.55805 47.9755 1.01967 47.1522 0.481299 46.3922C-0.0046767 45.1533 -0.114815 43.7985 0.164688 42.4973L4.43961 46.5822C5.06556 47.1907 5.91016 47.5217 6.78295 47.5006H30.0892C30.9634 47.5005 31.6724 48.2092 31.6724 49.0837Z" fill="#388E3C"/>
<path d="M66.3782 8.5194L58.4617 27.5191C58.2188 28.1103 57.6442 28.4975 57.0051 28.5007C56.909 28.5059 56.8127 28.4952 56.7201 28.469L39.3038 25.3025C38.6395 25.1667 38.1252 24.6397 38.0054 23.9725C37.9106 23.2891 38.2693 22.6229 38.892 22.3259L43.5786 19.9826L40.032 14.8211L34.2687 6.39782C32.8757 4.41859 30.6091 3.23808 28.1888 3.23126H20.6523C22.2182 1.57368 24.2896 0.482242 26.5422 0.127927L27.9672 0.0329291H28.4106L48.8668 0.00131245C51.5229 -0.0114529 54.0083 1.30858 55.4851 3.51625L59.1267 9.02615L64.225 6.49282C64.8116 6.20263 65.5163 6.30326 65.9983 6.74619C66.4745 7.20456 66.6249 7.90621 66.3782 8.5194Z" fill="#388E3C"/>
<path d="M75.4666 46.4554L73.9783 48.6088L73.8516 48.7988L73.7566 48.8938L62.7368 64.8851C60.6724 67.8865 57.2599 69.6757 53.617 69.6667H50.672V74.4166C50.667 75.0722 50.2668 75.6599 49.6587 75.9049C49.4751 75.9673 49.2825 75.9993 49.0887 75.9999C48.6376 76.0032 48.2083 75.8061 47.9171 75.4616L35.2507 61.2118C34.7482 60.6665 34.7083 59.8398 35.1557 59.2485L47.8221 41.8321C48.2104 41.2746 48.9141 41.0316 49.5637 41.2305C50.2267 41.4391 50.6762 42.0555 50.672 42.7505V47.5004H69.2283C70.1011 47.5217 70.9456 47.1906 71.5717 46.5821L75.8466 42.4971C76.1384 43.8237 76.0054 45.2086 75.4666 46.4554Z" fill="#388E3C"/>
</g>
<defs>
<clipPath id="clip0">
<rect width="76" height="76" fill="white"/>
</clipPath>
</defs>
</svg>
